<svg width="34" height="34" viewBox="0 0 34 34" fill="none" xmlns="http://www.w3.org/2000/svg">
<mask id="path-1-inside-1_4416_31821" fill="white">
<path fill-rule="evenodd" clip-rule="evenodd" d="M12.3144 6H11.5C9.84315 6 8.5 7.34315 8.5 9V14C8.5 15.6569 9.84315 17 11.5 17H12.2676C12.0974 16.7058 12 16.3643 12 16L12 7.07692C12 6.68042 12.1154 6.31086 12.3144 6ZM21.7324 17H22.5C24.1569 17 25.5 15.6569 25.5 14V9C25.5 7.34315 24.1569 6 22.5 6H21.6856C21.8846 6.31086 22 6.68042 22 7.07692L22 16C22 16.3643 21.9026 16.7058 21.7324 17Z"/>
</mask>
<path d="M12.3144 6L13.1566 6.53919L14.142 5H12.3144V6ZM12.2676 17V18H14.0013L13.1332 16.4993L12.2676 17ZM12 16L11 16V16H12ZM12 7.07692L13 7.07692V7.07692H12ZM21.7324 17L20.8668 16.4993L19.9987 18H21.7324V17ZM21.6856 6V5H19.858L20.8434 6.53919L21.6856 6ZM22 7.07692L23 7.07692V7.07692H22ZM22 16L21 16V16H22ZM11.5 7H12.3144V5H11.5V7ZM9.5 9C9.5 7.89543 10.3954 7 11.5 7V5C9.29086 5 7.5 6.79086 7.5 9H9.5ZM9.5 14V9H7.5V14H9.5ZM11.5 16C10.3954 16 9.5 15.1046 9.5 14H7.5C7.5 16.2091 9.29086 18 11.5 18V16ZM12.2676 16H11.5V18H12.2676V16ZM13.1332 16.4993C13.0487 16.3532 13 16.1838 13 16H11C11 16.5448 11.1461 17.0584 11.402 17.5007L13.1332 16.4993ZM13 16L13 7.07692L11 7.07692L11 16L13 16ZM13 7.07692C13 6.87717 13.0575 6.69391 13.1566 6.53919L11.4722 5.46081C11.1732 5.92782 11 6.48367 11 7.07692H13ZM22.5 16H21.7324V18H22.5V16ZM24.5 14C24.5 15.1046 23.6046 16 22.5 16V18C24.7091 18 26.5 16.2091 26.5 14H24.5ZM24.5 9V14H26.5V9H24.5ZM22.5 7C23.6046 7 24.5 7.89543 24.5 9H26.5C26.5 6.79086 24.7091 5 22.5 5V7ZM21.6856 7H22.5V5H21.6856V7ZM20.8434 6.53919C20.9425 6.6939 21 6.87717 21 7.07692H23C23 6.48367 22.8268 5.92782 22.5278 5.46081L20.8434 6.53919ZM21 7.07692L21 16L23 16L23 7.07692L21 7.07692ZM21 16C21 16.1838 20.9513 16.3532 20.8668 16.4993L22.598 17.5007C22.8539 17.0584 23 16.5448 23 16H21Z" fill="black" mask="url(#path-1-inside-1_4416_31821)"/>
<rect x="5.5" y="28" width="9.5" height="23" rx="1.5" transform="rotate(-90 5.5 28)" stroke="black"/>
<rect x="22.5" y="5.5" width="13" height="11" rx="2.5" transform="rotate(90 22.5 5.5)" stroke="black"/>
<rect x="12" y="15" width="11" height="1" fill="black"/>
</svg>
